# xmcd CD database file generated by OrangeCD 4.2
#
# Track frame offsets:
#	150
#	27150
#	47925
#	70950
#	84675
#	103500
#	121500
#	141675
#	156600
#	188700
#	203325
#
# Disc length: 2976 seconds
#
# Revision: 0
# Processed by: cddbd v1.4PL0 Copyright (c) Steve Scherf et al.
# Submitted via: OrangeCD 4.2
#
DISCID=990b9e0b
DTITLE=A.G. Weinberger - Standard Weinberger
DYEAR=1900
DGENRE=Blues
TTITLE0=Built For Comfort
TTITLE1=Guess Who
TTITLE2=With A Little Help From My Friends
TTITLE3=When My Heart Beats Like A Hammer
TTITLE4=Cry Me A River
TTITLE5=Hoochie Coochie Man
TTITLE6=Shake That Thing
TTITLE7=My Babe
TTITLE8=I Heard It Through The Grapevine
TTITLE9=The House Of The Rising Sun
TTITLE10=I Just Wanna Make Love To You
EXTD=
EXTT0=
EXTT1=
EXTT2=
EXTT3=
EXTT4=
EXTT5=
EXTT6=
EXTT7=
EXTT8=
EXTT9=
EXTT10=
PLAYORDER=
